# xmcd
#
# Track frame offsets: 
#        150
#        15240
#        28204
#        41193
#        56968
#        68585
#        84215
#        94990
#        106909
#        121607
#
# Disc length: 1812 seconds
#
# Revision: 0
# Processed by: cddbd v1.4PL0 Copyright (c) Steve Scherf et al.
# Submitted via: ExactAudioCopy v0.90b3
#
DISCID=7707120a
DTITLE=Susanna van Tassel - The Heart I Wear
DYEAR=2000
DGENRE=Honky Tonk
TTITLE0=You Broke the Rules
TTITLE1=Everything is Gonna Be Alright
TTITLE2=I Remember You
TTITLE3=You Won't Make Up Your Mind
TTITLE4=Before This Heartache Ends
TTITLE5=You Don't Know Me
TTITLE6=Mr. Right
TTITLE7=The Heart I Wear
TTITLE8=Broad Minded
TTITLE9=Nightwind
EXTD=
EXTT0=
EXTT1=
EXTT2=
EXTT3=
EXTT4=
EXTT5=
EXTT6=
EXTT7=
EXTT8=
EXTT9=
PLAYORDER=
